<svg width="24" height="24" viewBox="0 0 24 24" fill="none" xmlns="http://www.w3.org/2000/svg">
    <path d="M22.2026 4.13794H1.79742C0.804703 4.13794 0 4.94264 0 5.93536V8.91375H24V5.93536C24 4.94264 23.1953 4.13794 22.2026 4.13794Z" fill="#82AFFF"/>
    <path d="M0 18.0647C0 19.0574 0.804703 19.8621 1.79742 19.8621H22.2026C23.1952 19.8621 24 19.0574 24 18.0647V15.0863H0V18.0647Z" fill="#73AF00"/>
    <path d="M24 9.56714H0V14.4323H24V9.56714Z" fill="#F5F5F5"/>
    <path d="M0 9.37931V9.56727H24V9.37931V8.9137H0V9.37931Z" fill="#FF4B55"/>
    <path d="M0 14.6207V15.0863H24V14.6207V14.4327H0V14.6207Z" fill="#FF4B55"/>
    <path d="M5.31969 8.06578C4.47257 8.06578 3.78589 7.38075 3.78589 6.53667C3.78589 5.6895 4.47252 5.00137 5.31969 5.00137C5.32297 5.00137 5.32616 5.00137 5.32935 5.00142C5.37922 5.00207 5.39671 4.93584 5.35274 4.91226C5.09188 4.77243 4.79417 4.69331 4.47767 4.69561C3.46405 4.70282 2.64069 5.54278 2.65147 6.5564C2.66207 7.55957 3.48219 8.37159 4.49094 8.37159C4.80308 8.37159 5.09661 8.29261 5.35424 8.1547C5.39807 8.13121 5.38035 8.06498 5.33066 8.06568C5.32691 8.06578 5.3233 8.06578 5.31969 8.06578Z" fill="#F5F5F5"/>
    <path d="M6.52104 7.64286L6.45255 7.84826L6.23604 7.8499C6.208 7.85009 6.19638 7.8859 6.21893 7.90255L6.39311 8.03117L6.32777 8.23761C6.31933 8.26433 6.34975 8.28645 6.37258 8.27014L6.54874 8.14423L6.7249 8.27014C6.74772 8.28645 6.7781 8.26433 6.76971 8.23761L6.70436 8.03117L6.8785 7.90255C6.90105 7.8859 6.88943 7.85009 6.86139 7.8499L6.64488 7.84826L6.5764 7.64286C6.56754 7.61628 6.52994 7.61628 6.52104 7.64286Z" fill="#F5F5F5"/>
    <path d="M8.04643 7.64286L7.97794 7.84826L7.76143 7.8499C7.7334 7.85009 7.72177 7.8859 7.74432 7.90255L7.91846 8.03117L7.85311 8.23761C7.84468 8.26433 7.8751 8.28645 7.89793 8.27014L8.07408 8.14423L8.25024 8.27014C8.27307 8.28645 8.30344 8.26433 8.29505 8.23761L8.22971 8.03117L8.40385 7.90255C8.4264 7.8859 8.41477 7.85009 8.38674 7.8499L8.17022 7.84826L8.10174 7.64286C8.09288 7.61628 8.05524 7.61628 8.04643 7.64286Z" fill="#F5F5F5"/>
    <path d="M9.57182 7.64286L9.50333 7.84826L9.28682 7.8499C9.25879 7.85009 9.24716 7.8859 9.26971 7.90255L9.44389 8.03117L9.37855 8.23761C9.37011 8.26433 9.40054 8.28645 9.42336 8.27014L9.59952 8.14423L9.77568 8.27014C9.7985 8.28645 9.82888 8.26433 9.82049 8.23761L9.75514 8.03117L9.92929 7.90255C9.95183 7.8859 9.94021 7.85009 9.91218 7.8499L9.69566 7.84826L9.62718 7.64286C9.61832 7.61628 9.58068 7.61628 9.57182 7.64286Z" fill="#F5F5F5"/>
    <path d="M11.0972 7.64286L11.0287 7.84826L10.8122 7.8499C10.7842 7.85009 10.7726 7.8859 10.7951 7.90255L10.9692 8.03117L10.9039 8.23761C10.8955 8.26433 10.9259 8.28645 10.9487 8.27014L11.1249 8.14423L11.301 8.27014C11.3238 8.28645 11.3542 8.26433 11.3458 8.23761L11.2805 8.03117L11.4546 7.90255C11.4772 7.8859 11.4656 7.85009 11.4375 7.8499L11.221 7.84826L11.1525 7.64286C11.1437 7.61628 11.1061 7.61628 11.0972 7.64286Z" fill="#F5F5F5"/>
    <path d="M12.6226 7.64286L12.5541 7.84826L12.3376 7.8499C12.3096 7.85009 12.2979 7.8859 12.3205 7.90255L12.4947 8.03117L12.4293 8.23761C12.4209 8.26433 12.4513 8.28645 12.4741 8.27014L12.6503 8.14423L12.8265 8.27014C12.8493 8.28645 12.8797 8.26433 12.8713 8.23761L12.8059 8.03117L12.9801 7.90255C13.0027 7.8859 12.991 7.85009 12.963 7.8499L12.7465 7.84826L12.678 7.64286C12.6691 7.61628 12.6315 7.61628 12.6226 7.64286Z" fill="#F5F5F5"/>
    <path d="M8.04643 6.21922L7.97794 6.42463L7.76143 6.42627C7.7334 6.42646 7.72177 6.46227 7.74432 6.47891L7.91846 6.60754L7.85311 6.81397C7.84468 6.84069 7.8751 6.86282 7.89793 6.8465L8.07408 6.7206L8.25024 6.8465C8.27307 6.86282 8.30344 6.84069 8.29505 6.81397L8.22971 6.60754L8.40385 6.47891C8.4264 6.46227 8.41477 6.42646 8.38674 6.42627L8.17022 6.42463L8.10174 6.21922C8.09288 6.19255 8.05524 6.19255 8.04643 6.21922Z" fill="#F5F5F5"/>
    <path d="M9.57182 6.21922L9.50333 6.42463L9.28682 6.42627C9.25879 6.42646 9.24716 6.46227 9.26971 6.47891L9.44389 6.60754L9.37855 6.81397C9.37011 6.84069 9.40054 6.86282 9.42336 6.8465L9.59952 6.7206L9.77568 6.8465C9.7985 6.86282 9.82888 6.84069 9.82049 6.81397L9.75514 6.60754L9.92929 6.47891C9.95183 6.46227 9.94021 6.42646 9.91218 6.42627L9.69566 6.42463L9.62718 6.21922C9.61832 6.19255 9.58068 6.19255 9.57182 6.21922Z" fill="#F5F5F5"/>
    <path d="M11.0972 6.21922L11.0287 6.42463L10.8122 6.42627C10.7842 6.42646 10.7726 6.46227 10.7951 6.47891L10.9692 6.60754L10.9039 6.81397C10.8955 6.84069 10.9259 6.86282 10.9487 6.8465L11.1249 6.7206L11.301 6.8465C11.3238 6.86282 11.3542 6.84069 11.3458 6.81397L11.2805 6.60754L11.4546 6.47891C11.4772 6.46227 11.4656 6.42646 11.4375 6.42627L11.221 6.42463L11.1525 6.21922C11.1437 6.19255 11.1061 6.19255 11.0972 6.21922Z" fill="#F5F5F5"/>
    <path d="M12.6226 6.21922L12.5541 6.42463L12.3376 6.42627C12.3096 6.42646 12.2979 6.46227 12.3205 6.47891L12.4947 6.60754L12.4293 6.81397C12.4209 6.84069 12.4513 6.86282 12.4741 6.8465L12.6503 6.7206L12.8265 6.8465C12.8493 6.86282 12.8797 6.84069 12.8713 6.81397L12.8059 6.60754L12.9801 6.47891C13.0027 6.46227 12.991 6.42646 12.963 6.42627L12.7465 6.42463L12.678 6.21922C12.6691 6.19255 12.6315 6.19255 12.6226 6.21922Z" fill="#F5F5F5"/>
    <path d="M9.57182 7.64286L9.50333 7.84826L9.28682 7.8499C9.25879 7.85009 9.24716 7.8859 9.26971 7.90255L9.44389 8.03117L9.37855 8.23761C9.37011 8.26433 9.40054 8.28645 9.42336 8.27014L9.59952 8.14423L9.77568 8.27014C9.7985 8.28645 9.82888 8.26433 9.82049 8.23761L9.75514 8.03117L9.92929 7.90255C9.95183 7.8859 9.94021 7.85009 9.91218 7.8499L9.69566 7.84826L9.62718 7.64286C9.61832 7.61628 9.58068 7.61628 9.57182 7.64286Z" fill="#F5F5F5"/>
    <path d="M9.57182 4.79545L9.50333 5.00085L9.28682 5.00249C9.25879 5.00268 9.24716 5.03849 9.26971 5.05513L9.44389 5.18376L9.37855 5.3902C9.37011 5.41691 9.40054 5.43904 9.42336 5.42273L9.59952 5.29682L9.77568 5.42273C9.7985 5.43904 9.82888 5.41691 9.82049 5.3902L9.75514 5.18376L9.92929 5.05513C9.95183 5.03849 9.94021 5.00268 9.91218 5.00249L9.69566 5.00085L9.62718 4.79545C9.61832 4.76887 9.58068 4.76887 9.57182 4.79545Z" fill="#F5F5F5"/>
    <path d="M11.0972 7.64286L11.0287 7.84826L10.8122 7.8499C10.7842 7.85009 10.7726 7.8859 10.7951 7.90255L10.9692 8.03117L10.9039 8.23761C10.8955 8.26433 10.9259 8.28645 10.9487 8.27014L11.1249 8.14423L11.301 8.27014C11.3238 8.28645 11.3542 8.26433 11.3458 8.23761L11.2805 8.03117L11.4546 7.90255C11.4772 7.8859 11.4656 7.85009 11.4375 7.8499L11.221 7.84826L11.1525 7.64286C11.1437 7.61628 11.1061 7.61628 11.0972 7.64286Z" fill="#F5F5F5"/>
    <path d="M12.6226 7.64286L12.5541 7.84826L12.3376 7.8499C12.3096 7.85009 12.2979 7.8859 12.3205 7.90255L12.4947 8.03117L12.4293 8.23761C12.4209 8.26433 12.4513 8.28645 12.4741 8.27014L12.6503 8.14423L12.8265 8.27014C12.8493 8.28645 12.8797 8.26433 12.8713 8.23761L12.8059 8.03117L12.9801 7.90255C13.0027 7.8859 12.991 7.85009 12.963 7.8499L12.7465 7.84826L12.678 7.64286C12.6691 7.61628 12.6315 7.61628 12.6226 7.64286Z" fill="#F5F5F5"/>
    <path d="M11.0972 4.79545L11.0287 5.00085L10.8122 5.00249C10.7842 5.00268 10.7726 5.03849 10.7951 5.05513L10.9692 5.18376L10.9039 5.3902C10.8955 5.41691 10.9259 5.43904 10.9487 5.42273L11.1249 5.29682L11.301 5.42273C11.3238 5.43904 11.3542 5.41691 11.3458 5.3902L11.2805 5.18376L11.4546 5.05513C11.4772 5.03849 11.4656 5.00268 11.4375 5.00249L11.221 5.00085L11.1525 4.79545C11.1437 4.76887 11.1061 4.76887 11.0972 4.79545Z" fill="#F5F5F5"/>
    <path d="M12.6226 4.79545L12.5541 5.00085L12.3376 5.00249C12.3096 5.00268 12.2979 5.03849 12.3205 5.05513L12.4947 5.18376L12.4293 5.3902C12.4209 5.41691 12.4513 5.43904 12.4741 5.42273L12.6503 5.29682L12.8265 5.42273C12.8493 5.43904 12.8797 5.41691 12.8713 5.3902L12.8059 5.18376L12.9801 5.05513C13.0027 5.03849 12.991 5.00268 12.963 5.00249L12.7465 5.00085L12.678 4.79545C12.6691 4.76887 12.6315 4.76887 12.6226 4.79545Z" fill="#F5F5F5"/>
</svg>
